<svg width="56" height="27" viewBox="0 0 56 27" fill="none" xmlns="http://www.w3.org/2000/svg">
<path d="M27.9089 9.35409L30.4647 4.90706L39.1032 4.3448L39.4099 3.78253L31.3848 3.27138L33.276 0H48.0994C52.6487 0 56.0223 1.63569 54.7444 6.44052C54.3355 7.87175 52.4954 11.552 47.0771 13.0855C48.2528 13.2388 51.1152 14.5167 50.6041 17.7881C49.7351 23.6664 42.119 26.4266 37.9275 26.4266H20.395L19.526 23.053L28.6757 22.3885L28.9823 21.8773L19.0149 21.2639L17.9415 17.2258L32.1004 16.408L32.4071 15.8968L6.95167 14.3123L8.17844 12.2165L35.5762 10.4275L35.8829 9.91636L27.9089 9.35409ZM39.3587 10.223H41.9145C43.6013 10.223 45.3392 9.45632 46.0037 7.87175C46.6171 6.44052 45.7993 5.16264 44.7258 5.21375H42.2723L39.3587 10.223ZM36.4452 15.2835L33.3783 20.5483H36.2918C37.6208 20.5483 40.0232 19.8838 40.79 17.9415C41.4545 16.1524 40.2277 15.2323 39.3076 15.2323L36.4452 15.2835ZM14.3634 23.4108L12.6255 26.4266H0L1.22677 24.3309L14.3634 23.4108ZM15.2323 0H25.3532L26.1199 2.86245L14.0056 2.09573L15.2323 0ZM26.6822 5.16264L27.8067 9.35409L10.5297 8.17844L11.7565 6.08271L26.6822 5.16264ZM17.8903 17.277L15.6924 21.0595L3.52695 20.3439L4.75372 18.2481L17.8903 17.277Z" fill="#CF0A2C"/>
</svg>
